<?xml version="1.0" standalone="no"?>
<!DOCTYPE svg PUBLIC "-//W3C//DTD SVG 20010904//EN"
 "http://www.w3.org/TR/2001/REC-SVG-20010904/DTD/svg10.dtd">
<svg version="1.0" xmlns="http://www.w3.org/2000/svg"
 width="244.000000pt" height="244.000000pt" viewBox="0 0 244.000000 244.000000"
 preserveAspectRatio="xMidYMid meet">
<metadata>
Created by potrace 1.11, written by Peter Selinger 2001-2013
</metadata>
<g transform="translate(0.000000,244.000000) scale(0.100000,-0.100000)"
fill="#000000" stroke="none">
<path d="M1065 2430 c-153 -23 -260 -56 -386 -119 -317 -159 -556 -454 -640
-789 -31 -126 -37 -190 -34 -332 5 -218 53 -395 158 -575 371 -640 1214 -810
1797 -362 295 227 468 568 475 938 2 122 -1 170 -19 264 -3 17 -8 41 -11 55
-2 14 -15 57 -28 95 -144 417 -482 716 -922 811 -78 17 -312 25 -390 14z m19
-80 c-7 -7 -7 -32 0 -75 9 -61 8 -67 -14 -90 -28 -30 -72 -33 -99 -6 -11 11
-24 44 -31 75 -6 31 -16 56 -22 56 -19 0 -3 10 31 20 26 7 31 6 22 -3 -7 -9
-6 -30 3 -68 16 -70 22 -79 50 -79 42 0 50 22 36 95 -7 36 -17 66 -24 66 -6 1
3 5 19 9 17 4 32 8 35 9 2 0 -1 -4 -6 -9z m133 -4 c4 -7 30 -38 57 -67 l49
-53 -5 65 c-4 64 -3 65 20 61 13 -3 19 -7 14 -11 -5 -3 -12 -39 -15 -79 -3
-41 -8 -76 -10 -79 -5 -5 -69 61 -95 98 -7 11 -16 19 -20 19 -12 0 -13 -92 -1
-106 13 -15 6 -17 -29 -7 -16 4 -20 8 -12 13 12 8 17 37 19 118 1 42 13 54 28
28z m303 -26 c3 0 -2 -5 -12 -10 -13 -8 -28 -56 -30 -97 0 -5 -4 -18 -9 -30
-6 -16 -5 -23 3 -23 6 0 9 -2 6 -5 -3 -3 -19 -2 -37 1 -22 5 -28 9 -20 15 19
11 49 145 36 158 -7 7 0 8 24 1 18 -6 36 -10 39 -10z m95 -30 c14 -5 24 -14
20 -19 -3 -6 -8 -36 -10 -68 l-6 -58 45 44 c25 25 42 49 39 54 -4 6 1 8 11 4
10 -4 22 -7 27 -7 5 0 9 -4 9 -10 0 -5 -4 -9 -8 -7 -5 1 -37 -24 -72 -55 -35
-32 -66 -58 -71 -58 -4 0 -6 37 -5 83 2 45 -2 88 -7 95 -11 15 -6 15 28 2z
m-898 -56 c-9 -9 61 -144 76 -144 6 -1 1 -7 -13 -15 -29 -17 -44 -19 -35 -6 9
15 -58 141 -75 141 -9 1 -5 6 10 15 26 15 48 20 37 9z m1176 -111 c-3 -7 -9
-13 -15 -13 -5 0 -7 4 -3 9 3 6 -3 15 -14 21 -16 8 -23 6 -35 -12 -17 -24 -4
-53 21 -44 11 4 11 1 3 -15 -11 -20 -11 -20 -29 2 l-18 22 -21 -30 c-19 -27
-20 -32 -7 -43 8 -7 22 -10 30 -6 8 3 15 1 15 -4 0 -22 -24 -19 -65 6 -40 26
-42 29 -25 41 28 19 83 111 76 128 -3 9 15 1 43 -17 28 -19 47 -38 44 -45z
m-1302 30 c8 -9 9 -14 3 -10 -6 3 -19 1 -29 -7 -14 -10 -16 -16 -6 -34 6 -12
15 -22 19 -22 12 0 29 14 33 28 3 8 8 5 17 -8 11 -17 10 -20 -7 -20 -27 0 -32
-22 -10 -48 15 -20 22 -21 39 -12 14 7 19 17 16 27 -6 14 -4 14 10 2 15 -12
13 -16 -17 -42 -48 -40 -70 -52 -63 -32 8 19 -72 125 -93 125 -10 0 44 52 73
69 1 1 8 -7 15 -16z m820 -66 c305 -74 539 -279 643 -565 96 -268 60 -560
-100 -798 -119 -178 -308 -312 -509 -363 -78 -20 -101 -23 -202 -26 -508 -15
-925 402 -908 910 11 324 181 601 465 757 172 94 425 130 611 85z m628 -85
c13 -24 -2 -47 -41 -61 -24 -9 -26 -14 -25 -61 2 -51 2 -51 -16 -29 -14 17
-17 32 -12 60 4 21 4 43 0 49 -9 15 -47 -30 -41 -47 7 -18 -28 4 -42 28 -9 14
-9 17 1 13 18 -7 120 102 111 119 -4 6 7 -2 23 -19 17 -18 36 -41 42 -52z
m-1594 19 c3 -5 -5 -11 -17 -13 -15 -2 -23 -10 -23 -23 0 -17 6 -20 35 -17 19
1 45 0 57 -3 46 -11 51 -71 8 -99 -21 -14 -24 -13 -39 3 -15 16 -14 17 13 13
20 -3 30 1 35 13 10 27 -2 35 -54 35 -72 0 -100 36 -63 80 19 21 38 26 48 11z
m-66 -197 l64 -39 -49 -13 c-27 -7 -66 -17 -88 -23 l-38 -11 37 -25 c20 -14
45 -23 56 -20 17 5 18 3 3 -24 -15 -30 -26 -38 -21 -17 1 6 -29 32 -66 57 -76
49 -75 52 18 71 93 18 94 18 45 48 -25 14 -51 25 -58 24 -11 -3 -11 1 -2 18
10 18 13 19 23 7 7 -8 41 -32 76 -53z m1776 41 c29 -28 31 -40 9 -49 -12 -4
-14 -1 -9 13 4 14 0 23 -14 30 -24 13 -27 9 -36 -47 -12 -73 -71 -89 -105 -28
-13 24 -13 28 0 36 23 15 34 12 20 -5 -18 -21 -5 -47 22 -43 18 2 24 12 30 48
7 41 28 70 50 70 5 0 20 -11 33 -25z m87 -173 c-34 -5 -131 -57 -135 -72 -2
-10 -9 -3 -21 18 -13 26 -14 32 -3 30 23 -5 137 54 137 71 0 10 8 4 20 -14 18
-28 19 -30 2 -33z m-1962 -87 c61 -55 6 -176 -72 -161 -50 9 -64 22 -82 78 -9
29 15 79 46 98 33 20 76 14 108 -15z m2032 -60 c17 -59 17 -85 0 -85 -5 0 -7
11 -5 24 3 13 1 26 -4 29 -4 2 -38 -5 -75 -16 -46 -13 -68 -25 -69 -36 -1 -9
-5 -5 -9 9 -11 34 -12 52 -2 46 5 -3 38 3 73 13 69 19 86 41 52 67 -17 14 -17
15 1 12 15 -2 25 -19 38 -63z m-2166 -184 c40 -27 94 -37 106 -19 4 8 8 -3 8
-26 0 -31 -3 -37 -12 -28 -7 7 -24 12 -39 12 -35 0 -115 -34 -122 -52 -3 -7
-6 2 -6 20 -1 24 3 32 17 32 9 1 28 7 41 14 l23 13 -29 21 c-17 12 -33 19 -37
15 -3 -3 -6 9 -5 28 0 29 2 31 10 14 6 -11 25 -31 45 -44z m2204 23 c0 -19 -4
-33 -8 -30 -5 3 -21 -6 -37 -18 l-29 -23 29 -15 c17 -9 36 -13 43 -11 8 3 12
-5 12 -24 0 -15 -4 -23 -8 -17 -4 6 -26 21 -50 33 -46 23 -98 24 -111 2 -6 -9
-10 -2 -13 21 -3 33 -3 33 30 30 36 -5 102 32 124 68 17 27 18 26 18 -16z
m-2090 -444 c0 -24 -15 -40 -36 -40 -13 0 -24 2 -24 4 0 2 -3 11 -6 19 -9 23
24 49 47 37 10 -6 19 -15 19 -20z m1995 -1 c14 -43 -45 -66 -61 -24 -8 19 13
45 37 45 10 0 21 -10 24 -21z m-185 -329 c23 -25 64 -48 76 -43 8 3 14 1 14
-4 0 -13 -110 -143 -121 -143 -12 0 -11 17 2 25 13 9 -18 45 -38 45 -11 0 -11
4 -3 20 11 20 11 20 37 -5 34 -31 44 -23 14 9 -31 33 -18 53 16 26 43 -33 49
-10 7 27 -60 53 -70 56 -87 30 -31 -46 -57 -71 -67 -61 -6 6 10 31 42 67 l51
58 26 -23 c14 -13 28 -25 31 -28z m-1618 23 c10 -9 18 -24 18 -33 0 -21 25
-44 38 -36 6 3 15 0 21 -8 9 -10 0 -23 -44 -60 -46 -40 -56 -45 -62 -31 -4 11
0 21 11 27 12 7 14 13 6 29 -6 10 -17 19 -25 19 -21 0 -55 37 -55 59 0 45 57
66 92 34z m-101 -97 c-11 -13 -7 -23 23 -59 40 -49 43 -57 21 -57 -8 0 -15 3
-15 8 0 4 -12 21 -28 37 -57 63 -57 63 -31 84 27 22 50 11 30 -13z m1370 -170
c8 -16 17 -22 30 -19 10 3 19 0 19 -6 0 -6 -5 -11 -11 -11 -5 0 -9 -10 -7 -22
6 -41 -21 -29 -46 20 -14 27 -22 52 -19 56 12 12 24 6 34 -18z m-963 5 c10 -6
7 -15 -13 -39 -22 -27 -24 -33 -13 -56 9 -20 9 -29 0 -38 -9 -9 -14 -4 -23 20
-9 28 -13 30 -35 21 -31 -11 -34 -11 -34 0 0 5 16 18 35 30 19 11 40 32 47 46
12 27 16 29 36 16z m878 -21 c14 13 38 4 29 -10 -3 -5 1 -20 10 -33 14 -22 14
-26 -6 -50 -31 -41 -80 -33 -91 13 -2 8 -10 20 -18 27 -13 11 -12 14 7 19 13
3 20 10 18 15 -3 4 3 12 12 18 12 6 19 6 21 0 3 -6 9 -6 18 1z m-806 -10 c0
-5 -9 -26 -19 -47 -11 -21 -29 -60 -41 -87 -30 -68 -47 -46 -18 24 16 39 19
55 10 58 -20 6 -14 22 9 22 12 0 23 8 26 20 5 20 33 29 33 10z m40 -17 c0 -23
-75 -173 -87 -173 -18 0 -16 19 6 66 10 21 26 56 36 77 15 32 45 52 45 30z
m912 -79 c10 -21 9 -27 -2 -34 -10 -6 -18 -3 -25 9 -10 18 -12 18 -59 -5 -52
-25 -76 -30 -76 -16 0 8 126 72 143 72 4 0 13 -12 19 -26z m-575 0 c2 -5 -6
-10 -18 -11 -27 -2 -27 -2 -29 -38 -4 -62 -2 -65 38 -65 l37 0 -2 65 c-1 50 2
65 13 65 14 0 18 -12 15 -37 -1 -7 3 -13 9 -13 6 0 10 10 8 22 -2 15 3 24 15
26 15 3 17 -7 17 -97 0 -76 -3 -100 -12 -98 -21 4 -25 16 -21 70 2 28 0 47 -4
43 -10 -9 -10 -13 -12 -72 -1 -32 -5 -44 -13 -42 -7 3 -14 14 -16 24 -3 18 -9
20 -52 17 -56 -3 -51 -13 -54 104 l-1 51 39 -2 c22 -1 41 -6 43 -12z"/>
<path d="M1177 1934 c-131 -89 -378 -164 -538 -164 -26 0 -51 -5 -55 -11 -15
-25 -5 -601 11 -617 3 -3 37 1 77 7 40 7 98 15 128 17 30 3 66 8 80 11 44 9
562 12 645 3 129 -14 181 -20 206 -25 13 -3 45 -8 70 -11 45 -6 46 -5 52 22 3
16 6 158 7 317 l1 287 -53 0 c-82 0 -260 32 -332 60 -80 30 -120 49 -183 87
-39 24 -73 43 -75 43 -2 0 -21 -12 -41 -26z m158 -192 c148 -76 183 -267 73
-397 -67 -79 -204 -104 -302 -55 -153 78 -187 276 -68 403 28 29 67 54 112 68
41 14 142 3 185 -19z m338 -122 c-4 -14 4 -28 26 -47 35 -31 38 -48 14 -75
-15 -17 -15 -20 -3 -28 11 -7 12 -12 4 -20 -15 -15 -106 -9 -112 8 -2 6 3 12
12 12 23 0 20 27 -4 40 -24 13 -26 42 -5 60 12 10 15 10 15 0 0 -7 11 -21 25
-32 19 -15 24 -26 19 -46 l-5 -27 15 25 c14 24 13 27 -15 53 -35 33 -36 43 -7
74 26 28 27 28 21 3z m-917 -82 c4 -6 8 -34 9 -64 1 -44 -1 -55 -17 -60 -41
-13 -53 2 -53 63 0 32 3 60 7 63 13 10 48 9 54 -2z m86 3 c4 0 6 -28 6 -61 -1
-54 -4 -61 -24 -66 -13 -3 -28 -3 -33 1 -11 6 -16 117 -6 127 5 4 31 4 57 -1z
m-161 -85 l0 -56 42 -2 c49 -2 130 3 136 7 1 2 4 29 4 59 2 78 17 70 17 -9 0
-68 -1 -69 -49 -67 -14 1 -30 -3 -37 -9 -8 -6 -23 -7 -36 -3 -13 5 -34 9 -48
10 -14 1 -30 2 -36 3 -6 1 -10 25 -8 64 2 72 2 72 10 65 3 -4 5 -31 5 -62z
m1004 -68 c-13 -90 -29 -104 -40 -35 -3 23 -9 50 -11 60 -4 13 1 17 26 17 31
0 31 0 25 -42z"/>
<path d="M1178 1636 c-126 -45 -110 -222 21 -246 52 -9 96 11 129 60 44 65 15
154 -61 185 -44 18 -42 18 -89 1z"/>
<path d="M1097 1154 c-1 -1 -51 -4 -112 -8 -60 -3 -121 -8 -135 -10 -14 -3
-47 -7 -75 -10 -70 -8 -167 -24 -172 -30 -9 -9 38 -150 74 -220 37 -75 111
-186 124 -186 4 0 100 93 213 206 l206 207 210 -212 209 -211 45 63 c24 34 60
94 79 132 34 67 83 213 74 221 -6 7 -108 24 -177 30 -36 4 -68 8 -71 10 -15 9
-483 26 -492 18z"/>
<path d="M1062 737 c-83 -84 -152 -155 -152 -159 0 -12 146 -112 228 -156 l82
-44 83 44 c82 44 227 144 227 156 0 8 -303 312 -310 312 -3 0 -74 -69 -158
-153z m40 -149 c3 -29 0 -38 -12 -38 -11 0 -15 11 -15 42 0 24 5 46 10 50 11
8 12 4 17 -54z m94 51 c3 -6 1 -16 -5 -22 -7 -7 -7 -14 0 -24 18 -21 2 -45
-28 -41 -22 2 -27 8 -25 23 2 11 3 27 3 35 1 29 9 40 28 40 11 0 23 -5 27 -11z
m87 -4 c4 -8 2 -17 -4 -21 -6 -4 -6 -11 2 -20 15 -18 -5 -44 -33 -44 -23 0
-34 25 -19 44 9 10 9 16 1 21 -8 5 -8 11 1 21 15 18 45 18 52 -1z m77 4 c0 -5
-4 -8 -8 -5 -4 2 -14 1 -21 -4 -10 -6 -9 -9 7 -14 27 -9 35 -32 16 -51 -21
-20 -44 -19 -44 3 0 14 2 15 10 2 7 -12 12 -12 22 -2 11 11 9 16 -10 30 -15
12 -21 24 -16 35 7 18 44 24 44 6z"/>
<path d="M1156 625 c4 -8 10 -12 15 -9 14 8 10 24 -6 24 -9 0 -12 -6 -9 -15z"/>
<path d="M1156 593 c-12 -12 -6 -33 9 -33 8 0 15 6 15 14 0 17 -14 28 -24 19z"/>
<path d="M1242 631 c4 -13 18 -16 19 -4 0 4 -5 9 -11 12 -7 2 -11 -2 -8 -8z"/>
<path d="M1240 575 c0 -8 7 -15 15 -15 8 0 15 7 15 15 0 8 -7 15 -15 15 -8 0
-15 -7 -15 -15z"/>
<path d="M1976 2003 c-27 -29 -26 -43 4 -43 21 0 29 10 35 40 6 31 -12 33 -39
3z"/>
<path d="M163 1580 c-40 -36 -24 -83 33 -99 39 -11 73 4 91 39 11 22 10 28
-10 48 -34 33 -86 39 -114 12z"/>
<path d="M402 618 c-21 -21 -14 -48 12 -48 28 0 42 26 25 46 -14 17 -22 17
-37 2z"/>
<path d="M460 546 c0 -9 5 -16 10 -16 6 0 10 4 10 9 0 6 -4 13 -10 16 -5 3
-10 -1 -10 -9z"/>
<path d="M1610 294 c-11 -12 -10 -18 3 -32 16 -15 18 -15 34 0 13 14 14 20 3
32 -7 9 -16 16 -20 16 -4 0 -13 -7 -20 -16z"/>
</g>
</svg>
