<svg xmlns="http://www.w3.org/2000/svg" width="262.17448" height="262.19576" viewBox="0 0 245.78857 245.80853"><defs><clipPath id="a"><path d="M7.19995 446.702H629.28v-821.76H7.19995v821.76z"/></clipPath><clipPath id="b"><path d="M413.528 30.704h30.078v30.554h-30.078V30.704z"/></clipPath><clipPath id="c"><path d="M413.528 30.704h30.078v30.554h-30.078V30.704z"/></clipPath></defs><g clip-path="url(#b)" transform="matrix(9.89165 0 0 -9.89165 -4120.9744 580.94178)" fill="#fff"><path d="M440.8936 46.2311c0-6.494-5.264-11.757-11.758-11.757-6.494 0-11.758 5.263-11.758 11.757s5.264 11.758 11.758 11.758c6.494 0 11.758-5.264 11.758-11.758"/><path d="M440.026 48.048c.002-.022-.006-.057-.018-.088-.021-.046-.075-.106-.144-.162-.112-.09-.574-.435-.604-.453-.064-.035-.109-.06-.224-.071l-.183-.018-.223-.012c-.045-.001-.102.006-.112.046l-.017.072-.017.045-.024.007c-.039-.004-.034-.052-.032-.072l.019-.166.013-.113.008-.104.017-.238c.004-.027.01-.045.019-.055l.026-.007.023.01.009.046v.111c.002.049.03.075.099.086l.218.026c.003.002.185.02.185.02.073.005.14.011.221-.014.096-.029.648-.292.745-.357.064-.045.094-.065.118-.106.019-.032.029-.07.031-.087.008-.058.038-.059.047-.059.023.004.034.024.033.063l-.033.239-.012.21c0 .016-.005.056-.044.054-.026-.005-.031-.036-.033-.059-.003-.023-.013-.034-.036-.038-.029-.001-.066.004-.112.021-.036.012-.182.077-.326.14-.119.054-.233.101-.287.125.023.017.049.036.049.036.151.108.503.357.555.388.02.011.05.029.067.029.007.002.02-.003.022-.014l.006-.01c.011-.029.018-.052.044-.049l.024.011.007.044-.017.163-.009.075-.014.181-.007.102-.019.048-.025.01c-.007-.003-.037-.01-.033-.056M439.275 43.3002c0-.198-.161-.36-.36-.36-.2 0-.362.162-.362.36 0 .2.162.36.362.36.199 0 .36-.16.36-.36M452.2188 53.0599l-.639-.017-1.057.032c-.078 0-.283 0-.283-.193 0-.143.156-.176.273-.202.116-.027.163-.085.163-.192 0-.144-.047-.329-.148-.546-.077-.169-.468-.873-.848-1.552-.321-.578-.619-1.113-.759-1.383-.071.12-.149.258-.149.258-.462.8-1.547 2.678-1.675 2.947-.031.065-.125.252-.125.345 0 .046.026.098.084.111.004 0 .06.015.06.015.142.037.261.068.261.199 0 .058-.026.193-.261.193l-.821-.021-.381-.011-.894.02-.524.012c-.276 0-.307-.135-.307-.193 0-.046.02-.193.26-.193.108 0 .28-.055.429-.136.218-.124.49-.414.745-.791.402-.595 1.898-3.057 1.97-3.223.146-.328.251-.56.251-1.143v-.923l-.034-1.118c-.016-.222-.075-.494-.274-.533-.002-.002-.376-.044-.376-.044-.246 0-.271-.129-.271-.183 0-.205.247-.205.34-.205l.834.018.57.016.522-.011 1.199-.023c.286 0 .327.128.327.205 0 .054-.024.183-.27.183l-.551.044c-.246.032-.357.187-.381.533l-.035 1.118v.923c0 .36 0 .699.164 1.088.194.463 1.758 3.097 2.134 3.552.243.3.355.422.574.526.165.088.364.127.456.127.284 0 .306.157.306.204 0 .122-.099.182-.297.182l-.562-.015zM458.8901 44.9807c-1.977 0-3.359 1.685-3.359 4.101 0 2.981 1.675 3.427 2.673 3.427 1.886 0 3.202-1.641 3.202-3.99 0-3.195-1.759-3.538-2.516-3.538m-.359 8.253c-3.256 0-4.737-2.333-4.737-4.501 0-2.167 1.446-4.5 4.624-4.5 2.794 0 4.748 1.934 4.748 4.701 0 2.652-1.776 4.3-4.635 4.3M466.3326 52.7927l-.1-6.656c-.012-.996-.065-1.24-.286-1.308 0 .001-.476-.051-.476-.051-.226 0-.274-.099-.274-.182 0-.206.229-.206.341-.206l1.027.028.186.006.312-.01 1.083-.024c.096 0 .352 0 .352.206 0 .119-.095.182-.285.182-.16 0-.368.007-.555.072-.142.051-.304.228-.329 1.165 0 0-.109 4.129-.119 4.513l.114-.126c.472-.519 1.456-1.6 2.433-2.567l1.487-1.489 1.831-1.818c.136-.138.286-.273.446-.273.238 0 .238.31.238.442l.125 7.093c.011.661.115.802.348.868-.004 0 .311.031.311.031.258 0 .296.121.296.193 0 .194-.236.194-.351.194l-.899-.026-.204-.007-.393.01-.967.023c-.144 0-.386 0-.386-.194 0-.128.093-.193.274-.193.143 0 .409 0 .561-.062.21-.087.313-.247.324-.927 0-.002.09-3.995.109-4.871-.156.162-.701.727-.701.727l-1.667 1.726c-1.543 1.533-3.217 3.318-3.484 3.607 0 .001-.104.114-.104.114-.138.153-.24.265-.38.265-.238 0-.238-.346-.238-.475M477.7219 44.532zm-.034 6.483c0-.986.509-1.805 1.701-2.737l.517-.405c.884-.682 1.067-1.183 1.067-1.726 0-.577-.496-1.19-1.415-1.19-.448 0-1.241.139-1.519 1.07-.058.195-.096.42-.096.547 0 .234-.113.284-.207.284-.201 0-.22-.275-.225-.379-.003-.027-.058-1.48-.058-1.48 0-.262.04-.366.269-.467.477-.211.979-.3 1.678-.3.738 0 1.338.157 1.839.476.956.626 1.1 1.544 1.1 2.035 0 1.095-.493 1.863-1.882 2.94-.001.002-.314.237-.314.237-.977.741-1.155 1.102-1.155 1.545 0 .646.488 1.066 1.246 1.066.667 0 .976-.294 1.151-.517.228-.28.272-.611.272-.684 0-.256.13-.294.206-.294.217 0 .217.279.217.429l.035 1.162.01.188c0 .173-.167.211-.229.225-.333.09-.81.194-1.517.194-1.583 0-2.691-.913-2.691-2.219M485.5596 52.8377zm4.552.299l-.058-.018c-.005 0-.476-.066-.476-.066-.185-.01-2.02-.01-2.8-.01l-.565.013-1.055.02c-.11 0-.34 0-.34-.194 0-.128.096-.193.284-.193l.416-.031c.306-.065.39-.18.413-.557.024-.357.024-.666.024-2.379v-1.977c0-1.03 0-1.919-.057-2.386-.045-.332-.098-.507-.252-.537-.002-.001-.386-.044-.386-.044-.225 0-.273-.099-.273-.182 0-.095.055-.206.318-.206l.891.02.525.014.85-.022 2.265-.047c.424 0 .599 0 .696.363.06.235.149 1.008.149 1.272 0 .109 0 .296-.182.296-.169 0-.197-.147-.217-.247-.073-.439-.196-.646-.451-.763-.274-.128-.741-.128-1.019-.128-1.126 0-1.236.152-1.257.856l-.002 1.276.002.465v.888s.003.007.003.019c.329-.002 1.365-.013 1.559-.033.414-.046.51-.212.55-.37 0-.001.035-.285.035-.285l.006-.106c0-.11.076-.184.195-.184.194 0 .194.214.194.305l.044.744c0 .006.075.717.075.717l.016.114c0 .111-.068.183-.171.183-.094 0-.153-.068-.234-.162-.094-.105-.251-.135-.494-.153-.161-.015-.81-.023-1.774-.023-.001.014-.004.032-.004.032v2.843s.003.011.004.021c.278 0 1.39-.024 1.57-.043.528-.066.61-.18.677-.348.048-.115.059-.288.059-.371 0-.207.109-.25.196-.25.074 0 .171.035.202.197.002.004.043.522.043.522l.016.23c0 .004.073.617.073.617l.017.123c0 .18-.124.194-.162.194l-.138-.029M495.5671 53.0571l-.548-.014-1.463.032c-.118 0-.363 0-.363-.183 0-.135.093-.203.273-.203l.382-.043c.15-.033.288-.123.313-.545.022-.357.022-.666.022-2.379v-1.978c0-1.103 0-1.974-.055-2.441-.036-.331-.097-.452-.252-.481-.002-.002-.388-.044-.388-.044-.225 0-.271-.1-.271-.183 0-.094.054-.205.317-.205l.892.02.526.014.514-.012 1.239-.022c.285 0 .306.156.306.205 0 .054-.026.183-.273.183l-.558.044c-.277.036-.339.181-.373.469-.044.479-.044 1.349-.044 2.453v1.978c0 1.713 0 2.022.023 2.379.021.381.101.51.34.555l.32.033c.182 0 .274.068.274.203 0 .183-.249.183-.329.183l-.824-.018zM446.7119 41.9038zm3.597.108l-.16-.003c-.016 0-.651.016-.651.016-.047 0-.164 0-.164-.097 0-.065.047-.099.143-.099l.192-.015c.154-.034.198-.089.208-.28l.011-1.194v-.707c0-.598-.023-1.077-.315-1.368-.264-.263-.61-.291-.746-.291-.202 0-.44.026-.678.222-.218.178-.422.467-.422 1.354v.79l.012 1.194c.009.193.049.256.17.28l.155.015c.113 0 .138.054.138.099 0 .097-.116.097-.173.097l-.694-.016-.826.016c-.054 0-.169 0-.169-.097 0-.065.048-.099.141-.099l.209-.015c.156-.034.199-.089.211-.28l.009-1.194v-.825c0-.726.166-1.212.519-1.532.444-.402 1.032-.402 1.286-.402.333 0 .773.048 1.204.418.486.416.553 1.081.553 1.736v.605l.012 1.194c.01.193.05.256.17.28l.156.015c.041 0 .147 0 .147.099 0 .097-.114.097-.165.097l-.483-.013M452.7813 37.7623h.003-.003zm.478 4.12l-.05-3.344c-.007-.5-.032-.624-.141-.658l-.243-.025c-.111 0-.135-.049-.135-.092 0-.102.11-.102.169-.102l.516.014.095.001.156-.004.544-.011c.049 0 .176 0 .176.102 0 .061-.045.092-.141.092l-.279.036c-.071.026-.154.114-.166.584 0 0-.055 2.076-.059 2.268.027-.031.055-.062.055-.062l1.224-1.291.746-.748.921-.912c.069-.069.144-.14.224-.14.12 0 .12.157.12.224l.062 3.563c.005.334.06.403.176.436l.157.016c.129 0 .146.062.146.098 0 .097-.116.097-.175.097l-.452-.012-.101-.003-.199.004-.486.011c-.071 0-.193 0-.193-.097 0-.064.046-.098.137-.098l.282-.031c.108-.044.158-.121.163-.466 0-.001.046-2.03.056-2.448-.082.083-2.941 3.046-2.941 3.046 0 .002-.052.058-.052.058l-.192.132c-.12 0-.12-.173-.12-.238M459.937 41.8981zm.843.117l-.277-.006-.733.016c-.062 0-.182 0-.182-.093 0-.068.046-.103.137-.103l.19-.021c.075-.017.146-.062.158-.274l.012-1.194v-.996c0-.554 0-.99-.028-1.226-.017-.165-.051-.226-.127-.24l-.195-.023c-.112 0-.137-.049-.137-.091 0-.048.028-.103.161-.103l.71.015.26-.005.623-.01c.142 0 .152.077.152.103 0 .028-.012.091-.136.091l-.281.023c-.14.018-.172.09-.187.234.001 0-.022 1.232-.022 1.232v.996l.011 1.194c.011.192.052.256.172.28l.161.015c.09 0 .136.035.136.103 0 .093-.124.093-.166.093l-.412-.01M467.0991 42.0148l-.195-.006-.125.003-.468.013c-.075 0-.204 0-.204-.104 0-.092.107-.092.143-.092l.209-.025c.039-.014.044-.049.044-.063l-.049-.193c0-.001-.68-1.725-.68-1.725s-.344-.865-.4-1.006c-.06.156-.941 2.482-.941 2.482-.102.27-.125.379-.125.418 0 .039.01.063.036.081 0 .002.194.031.194.031.113 0 .131.062.131.099 0 .043-.032.097-.176.097l-.462-.01-.233-.006-.821.016c-.071 0-.193 0-.193-.097 0-.037.016-.099.116-.099l.208-.021c.184-.05.271-.101.398-.402l1.424-3.451c.112-.28.151-.374.256-.374.105 0 .144.087.272.377l.031.07.752 1.722.314.703.365.831c.147.351.23.441.294.486.09.059.199.059.251.059.112 0 .135.054.135.099 0 .097-.123.097-.164.097l-.337-.01zM469.2998 41.9038zm2.286.15c-.032-.008-.269-.04-.269-.04l-1.406-.005-.816.016c-.054 0-.169 0-.169-.097 0-.065.048-.099.141-.099l.209-.015c.156-.034.198-.089.21-.28l.012-1.194v-.995l-.029-1.199c-.023-.166-.049-.254-.127-.268l-.195-.023c-.112 0-.135-.049-.135-.091 0-.048.026-.103.158-.103l.711.016.429-.011 1.138-.022c.213 0 .3 0 .349.18.028.12.074.508.074.64 0 .054 0 .149-.091.149-.085 0-.099-.074-.107-.123-.039-.221-.1-.325-.228-.384-.138-.065-.372-.065-.512-.065-.566 0-.621.076-.632.43l-.001.642.001.232v.447c0 .008-.002.008-.002.008.023 0 .786-.015.786-.015.208-.021.258-.107.277-.186l.018-.14.003-.057c0-.055.037-.091.098-.091.096 0 .096.107.096.153l.024.374c0 .002.038.36.038.36l.006.058c0 .055-.033.091-.086.091l-.117-.081c-.048-.052-.125-.068-.247-.078 0 0-.867-.011-.892-.011-.002.008-.002.016-.002.016v1.431c0 .007-.001.009-.001.009.017 0 .791-.023.791-.023.266-.032.308-.09.34-.174.002-.002.031-.186.031-.186 0-.104.055-.126.097-.126.037 0 .086.016.104.099 0 .002.018.262.018.262l.011.117c0 .001.035.309.035.309l.01.062c0 .09-.063.097-.082.097l-.069-.016M476.0182 39.8689c-.093-.068-.156-.087-.375-.087l-.413.053c-.013.007-.019.009-.019.059v1.716c0 .031.003.031.017.034 0 .002.284.022.284.022.304 0 .82-.208.82-.987 0-.503-.196-.724-.314-.81m2.299-2.014l-.151.017c-.089.017-.309.061-.608.37l-1.023 1.233s-.132.165-.172.217c.506.42.729.803.729 1.27 0 .424-.265.717-.405.812-.324.221-.72.251-1.066.251l-.383-.009-.413-.007-.226.005-.548.011c-.056 0-.171 0-.171-.097 0-.065.047-.099.143-.099l.208-.015c.155-.034.196-.089.206-.28l.014-1.194v-.996l-.028-1.198c-.023-.166-.05-.254-.128-.268l-.194-.023c-.114 0-.137-.049-.137-.091 0-.048.028-.103.16-.103l.689.016.182-.003.648-.013c.133 0 .161.055.161.103 0 .042-.031.091-.115.091l-.27.023c-.131.017-.163.101-.181.268l-.027 1.204v.076c.041 0 .488-.01.488-.01.038 0 .053-.005.068-.022l.266-.367.289-.41c.335-.458.549-.715.793-.845.157-.083.31-.111.626-.111h.535c.038 0 .154 0 .154.103 0 .042-.029.091-.113.091M479.7335 37.7328h-.001.001zm-.018 3.257c0-.498.257-.909.855-1.375l.26-.204c.444-.345.536-.595.536-.868 0-.288-.249-.598-.709-.598-.227 0-.627.071-.765.538l-.049.274c0 .119-.056.142-.104.142-.1 0-.109-.137-.114-.19 0-.014-.028-.743-.028-.743 0-.132.019-.182.136-.233.239-.108.491-.152.843-.152.37 0 .672.079.925.241.478.312.552.774.552 1.022 0 .55-.249.935-.945 1.476l-.159.119c-.491.371-.58.554-.58.776 0 .326.245.536.625.536.336 0 .492-.148.58-.261.112-.139.136-.305.136-.344 0-.121.056-.146.104-.146.108 0 .108.14.108.215l.017.583.005.095c0 .088-.088.108-.116.114-.166.045-.403.098-.76.098-.797 0-1.353-.458-1.353-1.115M484.5415 41.8981zm.841.117l-.276-.006-.734.016c-.059 0-.181 0-.181-.093 0-.068.046-.103.135-.103l.192-.021c.076-.018.145-.062.158-.274l.012-1.194v-.996c0-.554 0-.99-.028-1.226-.018-.165-.049-.226-.127-.24l-.195-.023c-.113 0-.137-.049-.137-.091 0-.048.028-.103.161-.103l.711.015.259-.005.623-.01c.143 0 .152.077.152.103 0 .028-.011.091-.137.091l-.28.023c-.139.018-.17.09-.186.234l-.022 1.232v.996l.01 1.194c.012.192.052.256.172.28l.159.015c.093 0 .139.035.139.103 0 .093-.125.093-.166.093l-.414-.01M487.8983 41.96c-.008-.034-.12-.56-.12-.66 0-.033 0-.137.097-.137.081 0 .102.077.109.104l.088.183c.069.099.178.13.51.143 0 0 .668.017.794.02v-2.269l-.028-1.198c-.017-.18-.054-.254-.128-.268l-.192-.023c-.113 0-.136-.049-.136-.091 0-.048.028-.103.157-.103l.714.016.266-.006.62-.01c.142 0 .155.077.155.103 0 .028-.015.091-.138.091l-.28.023c-.133.017-.165.102-.182.264l-.029 1.202v2.269c.084-.002.664-.016.664-.016.383-.007.609-.107.623-.271 0-.002.005-.064.005-.064.004-.061.01-.156.107-.156.085 0 .095.097.099.133.001.005.017.659.017.659 0 .07 0 .166-.093.166l-.064-.011-.477-.044h-2.238l-.561.026-.166.046-.08.024c-.079 0-.1-.09-.113-.145M496.8775 42.0163l-.321-.007-.531.015c-.038 0-.141 0-.141-.097 0-.071.081-.088.136-.104.06-.014.084-.04.084-.094l-.075-.275s-.739-1.353-.806-1.477c-.036.062-.079.136-.079.136-.251.436-.775 1.342-.838 1.477-.002.001-.063.173-.063.173 0 .024.014.051.043.055.098.026.16.042.16.109 0 .029-.011.097-.132.097l-.411-.011-.193-.004-.71.015c-.141 0-.155-.068-.155-.097 0-.023.009-.098.131-.098l.215-.069c.109-.063.245-.207.375-.396.199-.299.952-1.536.989-1.619.073-.165.125-.281.125-.575v-.463l-.016-.561c-.008-.112-.037-.25-.138-.269l-.188-.022c-.124 0-.139-.063-.139-.091 0-.103.125-.103.172-.103l.706.015.264-.005.601-.01c.144 0 .164.063.164.103 0 .028-.011.091-.135.091l-.276.022c-.125.017-.18.093-.194.269l-.015.561v.463c0 .18 0 .351.081.547.097.235.884 1.555 1.071 1.784.123.151.18.213.29.265.002.001.228.063.228.063.143 0 .154.077.154.103 0 .062-.049.092-.148.092l-.285-.008zM637.2624 51.5925h.576v-3.912h-.576v1.479h-.845v.497h.845v.779h-.849v.497h.849v.66zm-1.754-3.672v-1.156h2.457v-.497h-3.039v1.653h.582zm-.021 2.754c-.142.16-.318.241-.53.241-.208 0-.385-.081-.528-.241-.144-.158-.214-.356-.214-.592 0-.232.07-.43.214-.59.143-.161.32-.244.528-.244.212 0 .388.083.53.244.141.16.212.358.212.59 0 .236-.071.434-.212.592m-1.468.367c.261.262.574.394.938.394.367 0 .681-.132.94-.394.259-.265.39-.585.39-.959 0-.375-.131-.694-.39-.959-.259-.263-.573-.395-.94-.395-.364 0-.677.132-.938.395-.262.265-.394.584-.394.959 0 .374.132.694.394.959M642.49 51.584h.563v-4.613h-.563v4.613zm-1.096-.084h.538v-4.392h-.538v2.732h-.756v.485h.756V51.5zm-.642-3.302c-.08.057-.165.128-.255.214s-.175.178-.255.278c-.074.1-.144.199-.205.3-.062.099-.108.191-.135.274-.033-.083-.08-.175-.141-.274-.062-.101-.133-.2-.214-.3-.086-.111-.176-.216-.269-.311-.091-.097-.177-.173-.257-.233l-.396.359c.185.162.337.321.458.472.122.153.221.313.297.48.068.163.119.335.149.515.032.18.05.379.05.6v.795h.61v-.784c0-.212.015-.411.044-.595.03-.186.084-.361.159-.526.069-.155.158-.306.274-.448.112-.145.251-.285.416-.42l-.33-.396zM647.5792 51.584h.563v-4.613h-.563v2.61h-.611v-2.473h-.539V51.5h.539v-1.366h.611v1.45zm-1.497-3.002c-.165-.05-.388-.088-.668-.11-.283-.023-.515-.034-.698-.041l-.72-.003v2.867h1.834v-.509h-1.264v-1.87l.228-.004c.17-.004.383.004.632.026.25.022.468.057.656.106v-.462zM653.6978 50.1644v-.502h-.755v-1.233h-.575v3.16h.575v-1.425h.755zm-3.678-2.03h2.923v-1.917h-.581v1.438h-2.342v.479zm.776 2.24c-.142.145-.302.216-.483.216-.179 0-.34-.071-.482-.216-.141-.143-.213-.314-.213-.514 0-.197.072-.367.213-.51.142-.144.303-.217.482-.217.181 0 .341.073.483.217.142.143.214.313.214.51 0 .2-.072.371-.214.514m1.068.772v-.479h-.694c.116-.107.21-.232.284-.374.074-.14.111-.294.111-.457 0-.327-.121-.609-.365-.846-.244-.234-.54-.352-.887-.352s-.641.118-.883.352c-.243.237-.362.519-.362.846 0 .163.036.317.11.457.074.142.167.267.278.374h-.706v.479h1.259v.606h.628v-.606h1.227zM657.2719 48.6583c.045.319.08.688.106 1.105.026.417.032.767.021 1.051h-2.649v.498h3.228c0-.412-.013-.855-.038-1.331-.025-.475-.068-.916-.122-1.323h-.546zm-2.199.958h.534v-1.485h.712v1.485h.533v-1.485h1.846v-.496h-4.822v.496h1.197v1.485zM641.5212 42.0148v-.845h-1.277v-3.1h-.966v6.573h.966v-2.628h1.277zm-5.162-3.552v-1.932h4.025v-.834h-5.001v2.766h.976zm.296 3.909c-.237.252-.511.378-.818.378-.311 0-.583-.126-.822-.378-.237-.252-.357-.544-.357-.88 0-.328.12-.616.357-.865.239-.249.511-.373.822-.373.307 0 .581.124.818.373.239.249.357.537.357.865 0 .336-.118.628-.357.88m1.787 1.497v-.806h-1.389c.262-.182.478-.412.648-.691.172-.277.258-.585.258-.918 0-.565-.204-1.048-.619-1.453-.412-.401-.915-.602-1.503-.602-.592 0-1.092.201-1.501.602-.41.405-.615.888-.615 1.453 0 .333.087.641.257.918.174.279.382.509.63.691h-1.399v.806h2.113v1.015h1.056v-1.015h2.064zM647.2387 42.237c.064.525.089.942.077 1.259h-4.007v.845h5.033c.013-.491-.018-1.065-.09-1.72-.076-.658-.169-1.214-.282-1.672h1.983v-.806h-3.553v-1.468h2.013v-3.129h-.977v2.313h-4.216v.816h2.143v1.468h-3.582v.806h5.213c.1.336.182.765.245 1.288M654.0117 42.9542c-.252.284-.566.428-.942.428s-.689-.144-.94-.428c-.251-.285-.377-.637-.377-1.053 0-.409.126-.758.377-1.047.251-.288.564-.431.94-.431s.69.143.942.431c.251.289.377.638.377 1.047 0 .416-.126.768-.377 1.053m2.661-.56v2.235h.976v-7.69h-.976v4.599h-1.338c-.082-.561-.335-1.036-.76-1.418-.426-.382-.927-.573-1.505-.573-.63 0-1.17.229-1.62.689-.45.458-.674 1.014-.674 1.665s.224 1.206.674 1.668c.45.458.99.687 1.62.687.557 0 1.043-.177 1.46-.527.415-.354.678-.797.784-1.335h1.359zM667.1841 42.2328v-.844h-1.266v-2.074h-.967v5.314h.967v-2.396h1.266zm-6.179-3.412h4.913v-3.218h-.979v2.414h-3.934v.804zm1.303 3.765c-.238.242-.51.363-.81.363-.301 0-.573-.121-.81-.363-.238-.242-.357-.53-.357-.865 0-.329.119-.614.357-.855.237-.242.509-.364.81-.364.3 0 .572.122.81.364.238.241.357.526.357.855 0 .335-.119.623-.357.865m1.797 1.298v-.804h-1.168c.195-.182.354-.393.478-.63.124-.238.187-.495.187-.771 0-.549-.204-1.021-.616-1.418-.409-.395-.904-.594-1.488-.594s-1.078.199-1.483.594c-.408.397-.609.869-.609 1.418 0 .276.06.533.186.771.123.237.278.448.466.63h-1.186v.804h2.112v1.017h1.058v-1.017h2.063zM675.7327 42.5773v-.847h-1.268v-2.393h-.966v5.292h.966v-2.052h1.268zm-2.673-4.504c-.226.229-.504.347-.841.347-.328 0-.609-.118-.846-.347-.234-.232-.351-.516-.351-.852 0-.328.112-.608.337-.841.224-.23.502-.348.831-.348.335 0 .62.118.855.348.234.233.352.513.352.841 0 .336-.112.62-.337.852m.679-2.281c-.416-.394-.922-.592-1.52-.592-.589 0-1.095.198-1.515.592-.418.396-.629.875-.629 1.429 0 .565.211 1.046.629 1.441.42.395.926.592 1.515.592.598 0 1.104-.197 1.52-.592.416-.395.625-.876.625-1.441 0-.554-.209-1.033-.625-1.429m-.926 4.49c-.355-.068-.878-.125-1.569-.173-.691-.046-1.225-.07-1.601-.07l-1.641-.01v4.207h3.765v-.846h-2.787v-2.546l.824.01c.415.006.909.027 1.475.061.566.034 1.078.084 1.534.152v-.785zM635.5632 31.1389h-.506c-.098.152-.207.302-.326.453-.121.148-.245.292-.376.433h-.033v-.631c0-.029.004-.054.016-.076.01-.022.03-.04.058-.054.013-.004.037-.014.075-.021.036-.01.067-.014.092-.014v-.09h-.752v.09c.018 0 .046.004.085.007.038.004.066.008.081.015.026.012.044.027.056.05.01.022.019.048.019.078v1.314c0 .027-.007.053-.016.074-.01.022-.029.038-.059.053-.023.009-.051.021-.084.03-.031.007-.061.013-.082.014v.089h.752v-.089c-.025-.001-.052-.005-.089-.012-.036-.006-.06-.013-.078-.018-.03-.01-.049-.027-.06-.051-.01-.024-.014-.049-.014-.079v-.628h.025c.076.066.153.133.225.202.076.072.141.141.203.211.067.077.116.141.146.187.031.045.047.089.047.125 0 .011-.008.023-.023.031-.016.007-.036.014-.054.02-.025.005-.045.008-.065.01-.019.001-.034.001-.045.002v.089h.677v-.089c-.004 0-.009-.001-.016-.001-.01 0-.019-.001-.03-.001-.012-.003-.025-.003-.035-.007-.011-.003-.026-.005-.046-.009-.029-.007-.06-.017-.091-.034-.032-.014-.059-.032-.077-.056-.088-.098-.178-.204-.275-.311-.094-.106-.189-.205-.283-.292.129-.145.236-.273.32-.377.085-.105.175-.218.271-.337.036-.048.073-.083.109-.113.036-.028.067-.048.094-.062.022-.011.049-.02.082-.027.033-.004.061-.008.082-.008v-.09zM636.8959 31.4539c.047.077.081.165.105.262.021.099.032.208.032.329 0 .123-.012.239-.038.34-.022.105-.059.194-.106.267-.045.073-.104.128-.175.169-.071.041-.152.06-.243.06-.102 0-.188-.022-.261-.07-.071-.046-.13-.11-.174-.187-.042-.076-.075-.163-.095-.263-.02-.101-.031-.205-.031-.316 0-.123.011-.234.033-.331.022-.1.056-.188.105-.264.045-.075.104-.134.173-.176.07-.042.153-.063.25-.063.091 0 .174.022.246.063.075.042.135.103.179.18m.19 1.284c.079-.083.143-.184.19-.301.045-.118.066-.25.066-.392 0-.144-.024-.273-.067-.394-.048-.115-.113-.217-.194-.3-.077-.08-.17-.143-.275-.19-.105-.042-.217-.064-.335-.064-.126 0-.242.022-.349.07-.106.049-.199.114-.276.198-.077.083-.136.182-.18.301-.045.118-.067.244-.067.379 0 .147.024.278.071.393.045.116.109.216.188.3.081.083.175.146.28.191.106.045.217.066.333.066.12 0 .233-.021.34-.067.106-.045.199-.109.275-.19M638.6656 32.4903c0 .11-.032.197-.095.262-.063.064-.153.095-.269.095h-.217v-.775h.168c.119 0 .216.038.295.111.078.075.118.178.118.307m.671-1.351h-.492c-.108.168-.206.315-.291.438-.087.123-.182.248-.283.38h-.186v-.575c0-.028.006-.054.014-.077.01-.021.03-.038.059-.052.015-.005.043-.01.08-.016.039-.006.071-.008.098-.008v-.09h-.764v.09c.021 0 .05.004.089.008.038.003.065.01.08.016.025.011.045.028.055.05.012.02.018.047.018.082v1.315c0 .029-.003.054-.012.078-.011.024-.029.04-.061.051-.02.008-.049.017-.083.022-.032.007-.063.012-.086.013v.089h.836c.076 0 .147-.007.216-.024.067-.016.126-.04.182-.075.052-.036.094-.08.126-.135.031-.053.048-.119.048-.198 0-.07-.012-.132-.033-.187-.021-.052-.051-.1-.093-.138-.039-.036-.085-.069-.138-.097-.054-.025-.113-.049-.178-.067.089-.119.163-.218.224-.3.058-.082.13-.18.216-.295.037-.052.071-.089.101-.114.031-.023.061-.042.091-.059.022-.011.051-.02.083-.027.033-.004.062-.008.084-.008v-.09zM640.9286 31.6733l-.034-.534h-1.504v.09c.026 0 .06.004.102.008.043.007.069.013.084.018.026.014.044.03.057.052.011.019.015.044.015.078v1.308c0 .026-.004.05-.013.074-.011.021-.03.038-.059.052-.024.01-.054.021-.093.031-.039.007-.071.013-.093.014v.089h1.403v-.436h-.098c-.016.063-.054.132-.109.202-.058.073-.112.11-.162.118-.027.003-.058.005-.094.007-.037.002-.08.003-.126.003h-.284v-.716h.204c.065 0 .112.007.143.019.03.011.057.032.078.062.019.023.034.057.049.098.012.042.023.082.026.118h.096v-.713h-.096c-.003.041-.012.084-.026.13-.017.047-.032.08-.049.099-.025.034-.054.055-.089.065-.032.011-.078.016-.132.016h-.204v-.542c0-.055.003-.098.011-.128.008-.032.022-.055.044-.072.023-.015.053-.028.09-.032.038-.004.093-.006.162-.006h.111c.046 0 .085.002.115.005.034.002.067.009.101.018.033.01.059.021.074.037.037.04.078.102.121.185.044.083.07.144.082.183h.097zM642.0742 31.88l-.274.705-.27-.705h.544zm.729-.741h-.753v.09c.066.004.121.011.166.024.043.015.065.031.065.049 0 .007 0 .015-.003.028-.001.011-.004.02-.007.03l-.15.407h-.637c-.023-.061-.041-.113-.057-.157-.015-.045-.029-.086-.04-.124-.011-.035-.019-.064-.024-.088-.003-.024-.005-.041-.005-.057 0-.033.026-.06.08-.08.053-.018.114-.029.182-.032v-.09h-.682v.09c.023 0 .049.006.083.014.033.007.061.018.082.032.034.023.06.048.078.073.02.026.039.059.056.103.09.229.191.485.3.768.11.285.209.537.294.759h.103l.603-1.565c.013-.034.027-.062.043-.081.017-.022.039-.041.066-.06.022-.012.047-.022.078-.032.031-.007.06-.011.079-.011v-.09z"/><path d="M644.7281 32.8644c-.024-.001-.06-.007-.109-.02-.049-.015-.085-.026-.106-.04-.031-.022-.052-.062-.061-.123-.011-.06-.018-.138-.018-.229v-1.33h-.109l-1.103 1.485v-.94c0-.105.008-.185.022-.243.011-.053.032-.094.06-.117.019-.021.06-.036.12-.055.061-.015.1-.023.122-.023v-.09h-.743v.09c.024 0 .062.008.117.023.055.016.089.029.102.041.031.023.049.061.061.11.012.048.018.132.018.252v.895c0 .04-.007.079-.023.117-.012.039-.03.07-.054.093-.03.027-.071.051-.123.072-.053.019-.096.031-.127.032v.089h.517l1.022-1.376v.859c0 .105-.009.186-.021.242-.014.057-.032.096-.057.114-.025.014-.064.031-.118.045-.054.017-.094.026-.123.027v.089h.734v-.089zM646.9586 31.6775l-.038-.539h-1.413v.09c.021 0 .051.005.089.009.039.003.067.01.08.015.026.012.045.028.057.051.011.02.017.046.017.082v1.3c0 .028-.004.055-.015.078-.01.022-.029.04-.059.053-.019.01-.046.021-.08.031-.036.01-.066.016-.089.017v.088h.766v-.088c-.025-.001-.057-.006-.094-.013-.037-.007-.066-.014-.082-.019-.03-.012-.049-.029-.06-.054-.01-.024-.016-.051-.016-.077v-1.217c0-.056.002-.099.009-.13.006-.031.018-.054.037-.074.022-.012.049-.025.087-.029.039-.004.092-.006.161-.006.031 0 .063 0 .097.002.035.003.065.005.097.011.029.004.056.011.08.02.026.008.045.019.057.032.033.039.073.097.119.176.046.079.078.142.095.191h.098z"/><path d="M648.0458 31.88l-.274.705-.269-.705h.543zm.729-.741h-.753v.09c.065.004.121.011.165.024.043.015.066.031.066.049 0 .007 0 .015-.003.028 0 .011-.004.02-.007.03l-.151.407h-.636c-.022-.061-.044-.113-.059-.157-.013-.045-.027-.086-.04-.124-.01-.035-.018-.064-.022-.088-.004-.024-.007-.041-.007-.057 0-.033.027-.06.082-.08.052-.018.113-.029.182-.032v-.09h-.683v.09c.022 0 .051.006.084.014.033.007.06.018.081.032.034.023.062.048.078.073.019.026.038.059.057.103.09.229.191.485.298.768.114.285.209.537.296.759h.101l.605-1.565c.011-.034.025-.062.043-.081.017-.022.039-.041.066-.06.02-.012.046-.022.077-.032.033-.007.058-.011.08-.011v-.09z"/><path d="M650.6997 32.8644c-.024-.001-.061-.007-.109-.02-.049-.015-.085-.026-.106-.04-.031-.022-.051-.062-.062-.123-.01-.06-.015-.138-.015-.229v-1.33h-.111l-1.104 1.485v-.94c0-.105.007-.185.02-.243.015-.053.035-.094.063-.117.019-.021.06-.036.12-.055.061-.015.101-.023.12-.023v-.09h-.74v.09c.021 0 .061.008.114.023.056.016.089.029.104.041.029.023.05.061.062.11.01.048.015.132.015.252v.895c0 .04-.006.079-.019.117-.014.039-.032.07-.055.093-.032.027-.073.051-.125.072-.051.019-.094.031-.126.032v.089h.515l1.023-1.376v.859c0 .105-.007.186-.02.242-.015.057-.033.096-.059.114-.023.014-.063.031-.116.045-.055.017-.096.026-.123.027v.089h.734v-.089zM652.6042 31.8673c-.021-.001-.048-.006-.086-.013-.033-.004-.062-.012-.085-.021-.026-.015-.044-.034-.054-.056-.011-.024-.016-.051-.016-.083v-.35c.003-.035.005-.063.005-.089-.113-.052-.226-.09-.339-.118-.11-.027-.221-.041-.326-.041-.117 0-.229.023-.335.065-.108.045-.202.107-.282.187-.08.08-.144.179-.191.295-.049.116-.072.245-.072.39 0 .136.023.266.07.384.045.119.108.221.192.308.08.086.175.152.288.201.111.045.23.069.357.069.101 0 .189-.013.266-.038.075-.025.141-.056.199-.09l.052.086h.101l.015-.63h-.108c-.018.069-.039.137-.065.205-.025.069-.06.131-.101.184-.042.055-.093.097-.152.128-.059.032-.132.049-.215.049-.09 0-.171-.018-.243-.056-.07-.036-.133-.093-.186-.166-.05-.07-.091-.159-.118-.264-.028-.107-.041-.225-.041-.356 0-.114.012-.225.041-.326.025-.103.067-.192.119-.265.054-.077.119-.136.2-.18.077-.043.166-.066.267-.066.075 0 .142.012.205.035.06.024.105.047.13.074.006.045.01.09.01.136.002.045.002.082.002.115v.1c0 .035-.006.068-.014.096-.01.026-.031.049-.06.06-.029.014-.066.023-.115.028-.049.009-.085.013-.112.013v.09h.797v-.09zM654.5776 32.8644c-.025-.001-.059-.006-.105-.014-.046-.011-.083-.025-.112-.044-.029-.019-.049-.06-.059-.121-.013-.061-.016-.137-.016-.226v-.789c0-.1-.023-.187-.063-.261-.043-.075-.097-.135-.167-.185-.067-.045-.137-.077-.213-.098-.074-.018-.145-.03-.213-.03-.11 0-.208.014-.293.044-.085.027-.157.067-.215.114-.057.049-.099.105-.129.167-.029.063-.044.13-.044.197v1.074c0 .029-.004.054-.015.075-.008.02-.03.037-.059.055-.024.011-.051.022-.083.028-.035.008-.062.013-.084.014v.089h.755v-.089c-.024-.001-.054-.006-.09-.013-.036-.005-.063-.012-.079-.018-.03-.01-.05-.027-.059-.051a.23601.23601 0 0 1-.013-.078v-1.002c0-.049.005-.099.015-.154.01-.052.031-.102.065-.149.033-.045.078-.085.137-.114.056-.031.136-.045.237-.045.094 0 .173.014.238.045.065.029.115.07.151.118.036.046.061.094.075.143.013.051.022.102.022.154v.744c0 .094-.006.171-.02.232-.015.06-.036.099-.061.119-.029.021-.071.037-.122.049-.051.01-.092.019-.119.02v.089h.738v-.089zM655.6821 31.88l-.274.705-.271-.705h.545zm.73-.741h-.753v.09c.066.004.12.011.165.024.045.015.065.031.065.049 0 .007 0 .015-.003.028-.001.011-.004.02-.007.03l-.15.407h-.635c-.025-.061-.045-.113-.059-.157-.016-.045-.029-.086-.042-.124-.009-.035-.017-.064-.021-.088-.004-.024-.006-.041-.006-.057 0-.033.026-.06.08-.08.054-.018.113-.029.18-.032v-.09h-.678v.09c.02 0 .048.006.081.014.033.007.06.018.082.032.032.023.06.048.079.073.018.026.036.059.055.103.09.229.191.485.301.768.109.285.207.537.293.759h.102l.604-1.565c.012-.034.027-.062.042-.081.018-.022.039-.041.068-.06.02-.012.044-.022.078-.032.029-.007.057-.011.079-.011v-.09zM658.2338 31.8673c-.019-.001-.048-.006-.083-.013-.037-.004-.066-.012-.085-.021-.028-.015-.045-.034-.058-.056-.009-.024-.017-.051-.017-.083v-.142c0-.101 0-.17.004-.208.001-.035.003-.063.004-.089-.113-.052-.226-.09-.337-.118-.112-.027-.221-.041-.33-.041-.116 0-.226.023-.334.065-.108.045-.2.107-.28.187-.082.08-.144.179-.193.295-.048.116-.072.245-.072.39 0 .136.023.266.069.384.046.119.109.221.194.308.079.086.176.152.288.201.11.045.228.069.357.069.102 0 .191-.013.265-.038.076-.025.142-.056.2-.09l.052.086h.103l.01-.63h-.105c-.018.069-.039.137-.065.205-.026.069-.061.131-.102.184-.042.055-.093.097-.153.128-.058.032-.13.049-.213.049-.09 0-.172-.018-.242-.056-.07-.036-.133-.093-.186-.166-.051-.07-.091-.159-.119-.264-.029-.107-.043-.225-.043-.356 0-.114.014-.225.043-.326.028-.103.066-.192.12-.265.052-.077.117-.136.196-.18.079-.043.17-.066.27-.066.074 0 .142.012.203.035.064.024.107.047.131.074.008.045.011.09.012.136V31.6703c0 .035-.004.068-.014.096-.009.026-.031.049-.061.06-.027.014-.066.023-.113.028-.049.009-.085.013-.114.013v.09h.798v-.09zM659.8978 31.6733l-.035-.534h-1.504v.09c.026 0 .059.004.103.008.042.007.07.013.082.018.028.014.047.03.058.052.01.019.016.044.016.078v1.308c0 .026-.005.05-.015.074-.008.021-.028.038-.059.052-.023.01-.053.021-.091.031-.039.007-.07.013-.094.014v.089h1.403v-.436h-.097c-.017.063-.054.132-.11.202-.058.073-.11.11-.163.118-.026.003-.057.005-.094.007-.036.002-.077.003-.124.003h-.285v-.716h.203c.066 0 .115.007.144.019.031.011.057.032.079.062.018.023.036.057.047.098.015.042.024.082.027.118h.098v-.713h-.098c-.003.041-.012.084-.027.13-.014.047-.031.08-.047.099-.026.034-.056.055-.09.065-.033.011-.077.016-.133.016h-.203v-.542c0-.055.004-.098.013-.128.006-.032.021-.055.042-.072.023-.015.052-.028.09-.032.04-.004.093-.006.164-.006h.11c.046 0 .084.002.115.005.031.002.065.009.1.018.036.01.058.021.073.037.038.04.08.102.121.185.044.083.072.144.082.183h.099zM661.5048 31.1389h-.814v.09c.023 0 .057.004.1.007.043.004.072.008.091.015.028.012.049.027.062.045.011.02.018.047.018.081v1.316c0 .032-.004.056-.014.076-.008.02-.031.036-.066.051-.026.009-.057.019-.096.028-.038.009-.072.015-.095.016v.089h.814v-.089c-.026-.001-.057-.002-.094-.009-.038-.005-.069-.014-.097-.021-.032-.01-.053-.027-.064-.05-.011-.022-.016-.05-.016-.077v-1.316c0-.027.005-.052.017-.075.013-.022.033-.039.063-.052.02-.005.048-.014.089-.021.039-.01.072-.014.102-.014v-.09zM663.5906 32.8644c-.023-.001-.059-.007-.107-.02-.051-.015-.085-.026-.107-.04-.03-.022-.052-.062-.062-.123-.011-.06-.017-.138-.017-.229v-1.33h-.109l-1.101 1.485v-.94c0-.105.005-.185.019-.243.013-.053.034-.094.061-.117.019-.021.059-.036.121-.055.061-.015.1-.023.121-.023v-.09h-.742v.09c.024 0 .061.008.117.023.054.016.087.029.101.041.03.023.05.061.061.11.012.048.018.132.018.252v.895c0 .04-.006.079-.021.117-.013.039-.031.07-.055.093-.03.027-.072.051-.124.072-.052.019-.095.031-.128.032v.089h.518l1.023-1.376v.859c0 .105-.01.186-.022.242-.014.057-.033.096-.058.114-.023.014-.061.031-.116.045-.055.017-.095.026-.123.027v.089h.732v-.089zM664.8665 31.97c.039-.041.068-.089.086-.138.018-.05.028-.111.028-.178 0-.161-.06-.293-.179-.396-.118-.105-.265-.157-.44-.157-.083 0-.163.011-.245.039-.081.026-.152.057-.208.093l-.058-.094h-.099l-.018.619h.101c.021-.078.047-.145.075-.206.03-.061.067-.119.115-.173.042-.049.096-.09.156-.119.059-.031.127-.044.207-.044.059 0 .11.007.154.021.044.016.079.037.106.066.028.027.048.061.061.099.015.038.02.08.02.131 0 .071-.02.137-.059.201-.042.062-.105.108-.185.14-.056.022-.119.048-.19.075-.073.027-.134.052-.186.076-.102.046-.183.107-.238.183-.057.074-.087.171-.087.294 0 .067.015.132.043.191.028.059.068.114.12.162.051.042.109.078.176.104.068.023.139.036.211.036.084 0 .158-.013.224-.038.067-.027.129-.057.183-.09l.051.086h.103l.007-.601h-.1c-.018.068-.041.135-.065.196-.023.063-.052.119-.09.172-.038.049-.082.087-.135.118-.054.029-.119.043-.195.043-.082 0-.152-.026-.21-.077-.056-.052-.085-.115-.085-.191 0-.078.017-.142.054-.193.038-.052.091-.094.162-.128.061-.03.124-.055.183-.076.06-.024.119-.046.174-.07.052-.023.101-.048.148-.076.049-.028.091-.062.124-.1M666.6802 32.4622h-.089c-.007.028-.023.065-.041.107-.021.041-.043.081-.067.117-.026.039-.055.073-.085.101-.03.029-.06.046-.085.051-.027.002-.06.004-.1.006-.04.002-.078.003-.113.003h-.072v-1.448c0-.027.005-.052.018-.076.011-.023.033-.042.062-.054.015-.007.048-.015.096-.025.05-.011.087-.015.115-.015v-.09h-.855v.09c.024 0 .06.004.109.008.048.007.082.013.1.021.028.01.05.027.063.047.013.021.021.049.021.084v1.458h-.074c-.028 0-.059-.001-.1-.001-.039-.002-.077-.006-.112-.008-.027-.005-.057-.02-.087-.051a.53037.53037 0 0 1-.084-.101c-.025-.037-.046-.078-.067-.12-.02-.042-.033-.077-.041-.104h-.091v.491h1.579v-.491zM667.6161 31.1389h-.816v.09c.025 0 .057.004.1.007.045.004.076.008.093.015.027.012.048.027.061.045.013.02.019.047.019.081v1.316c0 .032-.006.056-.014.076-.01.02-.03.036-.066.051-.026.009-.057.019-.096.028-.038.009-.07.015-.097.016v.089h.816v-.089c-.026-.001-.059-.002-.095-.009-.035-.005-.066-.014-.095-.021-.032-.01-.053-.027-.066-.05-.01-.022-.016-.05-.016-.077v-1.316c0-.027.006-.052.02-.075.012-.022.032-.039.062-.052.018-.005.047-.014.088-.021.039-.01.073-.014.102-.014v-.09zM669.3175 32.4622h-.09c-.006.028-.021.065-.039.107-.021.041-.043.081-.069.117-.024.039-.053.073-.082.101-.031.029-.06.046-.087.051-.027.002-.061.004-.101.006-.041.002-.077.003-.111.003h-.074v-1.448c0-.027.007-.052.019-.076.011-.023.033-.042.063-.054.014-.007.048-.015.096-.025.049-.011.087-.015.115-.015v-.09h-.857v.09c.023 0 .06.004.11.008.049.007.083.013.102.021.027.01.047.027.061.047.014.021.02.049.02.084v1.458h-.074c-.026 0-.058-.001-.099-.001-.038-.002-.074-.006-.113-.008-.025-.005-.054-.02-.086-.051-.03-.028-.057-.062-.083-.101-.026-.037-.047-.078-.068-.12-.02-.042-.033-.077-.041-.104h-.089v.491h1.577v-.491zM671.2961 32.8644c-.024-.001-.06-.006-.103-.014-.047-.011-.084-.025-.114-.044-.029-.019-.047-.06-.059-.121-.011-.061-.017-.137-.017-.226v-.789c0-.1-.021-.187-.061-.261-.042-.075-.097-.135-.167-.185-.067-.045-.138-.077-.211-.098-.077-.018-.149-.03-.216-.03-.109 0-.206.014-.291.044-.084.027-.157.067-.216.114-.058.049-.1.105-.128.167-.031.063-.044.13-.044.197v1.074c0 .029-.004.054-.016.075-.009.02-.03.037-.061.055-.02.011-.049.022-.082.028-.036.008-.062.013-.082.014v.089h.753v-.089c-.024-.001-.053-.006-.09-.013-.035-.005-.062-.012-.079-.018-.029-.01-.048-.027-.058-.051-.009-.023-.015-.049-.015-.078v-1.002c0-.049.007-.099.017-.154.011-.052.032-.102.064-.149.033-.045.079-.085.137-.114.057-.031.136-.045.238-.045.095 0 .172.014.238.045.063.029.114.07.151.118.035.046.061.094.075.143.014.051.022.102.022.154v.744c0 .094-.006.171-.021.232-.013.06-.033.099-.06.119-.03.021-.071.037-.122.049-.052.01-.093.019-.119.02v.089h.737v-.089zM672.9161 32.4622h-.09c-.009.028-.023.065-.041.107-.022.041-.044.081-.068.117-.026.039-.053.073-.083.101-.031.029-.059.046-.087.051-.027.002-.061.004-.101.006-.04.002-.076.003-.111.003h-.073v-1.448c0-.027.005-.052.018-.076.01-.023.033-.042.062-.054.015-.007.048-.015.097-.025.05-.011.087-.015.116-.015v-.09h-.857v.09c.024 0 .059.004.108.008.05.007.084.013.102.021.027.01.048.027.062.047.014.021.019.049.019.084v1.458h-.073c-.026 0-.06-.001-.097-.001-.04-.002-.079-.006-.113-.008-.027-.005-.056-.02-.088-.051-.029-.028-.059-.062-.083-.101-.027-.037-.048-.078-.068-.12-.02-.042-.033-.077-.04-.104h-.09v.491h1.579v-.491zM674.5829 31.6733l-.035-.534h-1.503v.09c.025 0 .06.004.103.008.042.007.071.013.084.018.025.014.044.03.056.052.011.019.016.044.016.078v1.308c0 .026-.005.05-.014.074-.01.021-.029.038-.058.052-.025.01-.055.021-.095.031-.037.007-.07.013-.092.014v.089h1.404v-.436h-.099c-.016.063-.052.132-.111.202-.056.073-.109.11-.161.118-.026.003-.057.005-.093.007s-.08.003-.126.003h-.283v-.716h.202c.067 0 .112.007.145.019.03.011.056.032.078.062.019.023.035.057.048.098.013.042.023.082.027.118h.097v-.713h-.097c-.004.041-.014.084-.027.13-.017.047-.032.08-.048.099-.026.034-.056.055-.089.065-.034.011-.079.016-.134.016h-.202v-.542c0-.055.002-.098.011-.128.006-.032.021-.055.044-.072.022-.015.052-.028.09-.032s.093-.006.161-.006h.112c.046 0 .084.002.115.005.033.002.066.009.099.018.036.01.06.021.075.037.039.04.078.102.121.185.044.083.071.144.082.183h.097z"/></g><g clip-path="url(#c)" transform="matrix(9.89165 0 0 -9.89165 -4120.9744 580.94178)"><path d="M419.1189 50.061c-.253.081-.495.071-.682-.026-.146-.075-.247-.199-.298-.354-.061-.196-.079-.552.505-.738.472-.149.889.017 1.012.406.023.07.049.209-.027.356-.08.154-.25.274-.51.356M433.3192 36.5368c.139.067.195.239.127.384-.069.143-.239.207-.378.141-.14-.068-.197-.24-.127-.384.069-.145.239-.208.378-.141M420.7255 40.217c-.133-.117-.155-.311-.047-.436.107-.123.304-.129.437-.012.134.115.155.311.047.435s-.303.128-.437.013" fill="#003876"/><path d="M440.5132 46.5163c-.002.025-.013.059-.034.09-.026.042-.053.063-.119.107-.101.067-.67.335-.77.363-.082.026-.151.019-.224.012 0 0-.211-.021-.381-.038-.172-.016-.15-.136-.137-.267l-.074-.008-.078.779.079.009c.01-.115.023-.196.172-.18.148.014.386.037.386.037.119.012.164.037.228.074.032.018.506.374.619.467.071.061.126.121.146.168.027.059.015.151.015.151l.081.009.065-.661-.081-.009s-.002.039-.008.054l-.004.011c-.004.011-.014.015-.022.014-.019-.001-.055-.025-.068-.032-.053-.031-.614-.435-.614-.435s.592-.256.628-.269c.047-.015.085-.021.114-.019.021.002.036.019.034.035-.002.016-.006.061-.006.061l.085.009.057-.587-.083-.008-.006.063m-1.301-3.54c-.195 0-.351.158-.351.353 0 .195.156.352.351.352.194 0 .351-.157.351-.352 0-.195-.157-.353-.351-.353m-.625 5.662l-.079-.023-.224.756.081.024c.04-.136.06-.193.17-.16 0 0 1.167.345 1.371.405-.074.254-.091.309-.099.337-.046.154-.133.146-.254.128l-.026.091.364.053.428-1.448-.334-.152-.028.091c.111.05.189.093.144.245-.009.028-.025.084-.1.335-.178-.051-1.252-.369-1.372-.404-.13-.039-.075-.165-.042-.278m-1.205-10.465c-.015.012-.178.147-.193.16.014.014.23.276.23.276l-.407.336c-.051.042-.123.057-.146.027h-.001c-.01.008-.024.022-.034.029.014.015.215.259.228.274.016-.014.54-.448.54-.448l.105.126s-.525.435-.54.448c.012.015.182.219.195.236.016-.014.542-.449.542-.449s.068.084.155.189c-.231.193-1.037.861-1.037.861s-.786-.945-.799-.963c-.015.013-.177.146-.191.158.013.019 1.003 1.21 1.003 1.21.014-.011.973-.807 1.23-1.02.068.082.119.145.123.151.015-.013.177-.148.193-.159-.014-.016-1.183-1.425-1.196-1.442m-8.339-.862c-4.961 0-8.984 4.021-8.984 8.982 0 4.963 4.023 8.986 8.984 8.986 4.962 0 8.985-4.023 8.985-8.986 0-4.961-4.023-8.982-8.985-8.982m5.526-1.321c-.008.019-.185.389-.185.389s-1.188-.569-1.207-.579c-.01.017-.1.206-.109.225.021.008 1.476.708 1.497.718.01-.02.285-.595.294-.614-.018-.008-.27-.13-.29-.139m-.079.906c-.017-.009-.27-.13-.288-.139-.009.019-.422.876-.422.876-.028.062-.087.104-.121.087v-.001c-.005.012-.014.03-.019.04.018.009.336.162.355.171.008-.02.242-.504.242-.504s.264.128.283.137c.008-.017.089-.185.097-.203-.018-.009-.284-.136-.284-.136s.149-.31.157-.328m-1.809-.343c-.061.128-.057.27 0 .398-.112-.054-.19-.092-.196-.094-.008.018-.099.208-.107.224.019.01.431.207.431.207l-.006.011c-.032.054-.082.085-.112.071-.005.012-.014.03-.019.041.018.009.354.17.354.17.008-.018.073-.153.073-.153s.386.185.405.195c.008-.018.098-.208.106-.224-.005-.005-.09-.046-.214-.106.135-.035.25-.122.311-.247.119-.251-.013-.565-.296-.701-.283-.135-.61-.043-.73.208m-2.735-1.941h-.321v1.202h-.145v-1.202h-.298v.395h-1.086v1.378c0 .068-.036.13-.073.13v.044h.902v-.248h-.51v-1.056h.767v1.179c0 .067-.035.131-.072.131v.045h.37v-.547h.145v.547h.321v-1.998zm-5.228.8c-.019.007-.274.125-.292.132.009.021.826 1.797.835 1.818.019-.008.29-.134.29-.134h.002c-.01-.021-.828-1.795-.835-1.816m-.669.308c.009.019.503 1.092.503 1.092s-.286.132-.305.14c.009.017.096.209.105.227.018-.009.304-.14.304-.14l.155.336c.028.062.023.134-.011.149h-.001c.006.012.014.03.02.041.018-.008.322-.148.322-.148l.001-.002c-.01-.018-.827-1.795-.835-1.814-.018.007-.24.111-.258.119m-.271 1.166l-.005.01-.01-.005c-.306-.174-.53-.2-.533-.2h-.001c-.006.014-.068.17-.075.19.676.223.903.714.907.724v.001c.068.147-.011.207-.015.211.004.01.014.029.019.039.018-.007.403-.184.421-.193-.118-.255-.283-.462-.506-.631l-.007-.006.01-.02c.118-.217.201-.42.238-.573-.013-.006-.235-.133-.263-.148-.066.365-.135.507-.18.601m-2.678 1.635c-.012.014-.197.225-.211.241.017.014.391.342.391.342s-.177.205-.269.31c-.18-.014-.372.06-.506.216-.219.249-.209.615.021.815.23.2.593.161.811-.09.12-.138.171-.309.154-.471.055-.062.296-.34.296-.34l.057.052c.052.044.076.112.052.14.008.009.024.022.033.031.013-.017.245-.282.258-.297-.015-.014-1.071-.936-1.087-.949m-.391-.375c-.014.017-.991 1.138-1.005 1.154.015.014.357.312.357.312.05.042.075.111.05.138.009.009.025.023.033.03.014-.015.259-.296.259-.296-.016-.013-.3-.262-.3-.262s.78-.896.795-.913c-.015-.01-.174-.15-.189-.163m-2.104 10.437c-.239.076-.439.241-.549.452-.112.216-.125.476-.038.754.089.284.25.494.463.604.193.103.423.114.666.036.258-.081.463-.248.579-.469.115-.224.131-.482.045-.751-.195-.621-.741-.76-1.166-.626m.701-1.716l-.077.008c.011.113.014.196-.134.208-.149.014-.387.036-.387.036-.119.011-.169-.005-.239-.03-.034-.011-.566-.271-.696-.342-.082-.046-.146-.095-.175-.137-.037-.054-.042-.146-.042-.146l-.081.007.059.663.082-.009s-.005-.038-.003-.054c0 0 .003-.01.003-.012.001-.011.011-.016.019-.017.018-.002.058.013.071.019.058.02.687.311.687.311s-.533.363-.567.382c-.043.024-.079.038-.108.04-.021.003-.039-.011-.04-.027-.002-.016-.006-.061-.006-.061l-.085.009.054.586.083-.008s-.004-.043-.006-.065c-.002-.024.002-.059.017-.095.017-.044.04-.07.097-.125.086-.085.596-.454.687-.504.076-.039.144-.045.219-.053 0 0 .21-.018.382-.034.171-.016.171.107.183.237l.075-.007-.072-.78zm-.308-3.837c-.192 0-.346.157-.346.347 0 .192.154.347.346.347.192 0 .347-.155.347-.347 0-.19-.155-.347-.347-.347m-.134 8.738c.293.065 1.697.373 1.742.383 0 0-.716.442-.871.538-.154.095-.223-.032-.27-.109l-.071.045.321.519.072-.045c-.052-.082-.109-.159.045-.254.155-.095 1.303-.804 1.303-.804l-.062-.102-1.718-.387.839-.519c.179-.109.238.03.299.129l.072-.045-.347-.563-.072.045c.055.089.12.174-.048.278-.169.104-1.292.797-1.292.797l.058.094zm1.869 2.563c.191.2.299.214.299.214l.277-.267-.068-.072s-.066.086-.182.098c-.058.006-.145.001-.239-.098-.106-.111-.114-.242-.018-.334.065-.062.143-.086.392-.046 0 0 .079.012.079.013.358.053.543.017.706-.139.074-.07.191-.223.146-.454-.023-.121-.085-.233-.19-.341-.095-.101-.249-.22-.348-.222l-.322.307.064.065s.108-.075.146-.095c.175-.09.308.008.371.073.13.136.109.295.025.377-.08.076-.18.12-.406.086l-.134-.02c-.309-.045-.502-.005-.65.136-.195.186-.175.48.052.719m1.852 1.553l.219-.292-.067-.05c-.072.097-.128.162-.255.067-.056-.041-.271-.202-.271-.202l.359-.478.274.204c.095.071.074.105 0 .203l.067.049.289-.386-.067-.049c-.073.098-.099.128-.194.057l-.275-.205c.001-.001.001-.002.001-.002l.427-.572s.232.174.296.221c.096.072.115.163.011.303l.066.051.24-.318-.942-.703-.055.071c.109.081.166.106.051.26 0 0-.669.895-.769 1.029-.1.133-.216.033-.278-.014l-.049.067.922.689zm1.43.784l.038-.074c-.125-.065-.173-.095-.121-.197 0 0 .571-1.11.633-1.232.062-.121.176-.044.281.01l.037-.074-.7-.36-.038.075c.125.064.177.095.124.198 0 0-.599 1.167-.632 1.232-.068.132-.234.015-.234.015l-.038.074.65.333zm2.586.891l.018-.083c-.141-.028-.195-.043-.172-.155l.158-.787c.072-.357.178-.458.281-.513.112-.059.21-.05.292-.035.054.012.193.051.278.179.094.142.064.337.016.578 0 0-.146.724-.151.753-.029.147-.221.077-.221.077l-.017.082.624.125.016-.082c-.139-.029-.191-.042-.17-.155l.143-.711c.053-.265.079-.536-.082-.744-.143-.184-.316-.237-.451-.265-.1-.019-.338-.067-.549.058-.168.1-.273.282-.331.574 0 0-.155.769-.161.801-.029.145-.221.078-.221.078l-.016.081.716.144zm1.844-1.402c.105-.008.211-.025.222.173.012.199.093 1.515.093 1.515l.11-.008c.196-.228 1.13-1.317 1.16-1.352l.062 1.02c.011.182-.132.183-.222.189l.005.083.609-.037-.006-.085c-.097.005-.191.021-.203-.16-.009-.181-.092-1.529-.092-1.529l-.119.006-1.153 1.331-.059-.983c-.013-.21.136-.198.254-.204l-.005-.085-.661.039.005.087zm2.542-.231c.138-.031.196-.042.223.071 0 0 .295 1.278.311 1.35.034.145-.168.161-.168.161l.018.081.713-.165-.02-.081c-.138.032-.193.041-.218-.072 0 0-.282-1.217-.313-1.349-.03-.133.106-.148.221-.174l-.018-.08-.768.177.019.081zm1.733 1.33l.62-.271-.033-.076-.062.026c-.031.012-.052.001-.057-.006-.016-.017-.014-.051-.017-.063l-.013-.245c-.015-.279-.045-.919-.048-.965.04.039.321.32.321.32l.497.5c.029.036.059.071.066.101.005.02-.011.037-.032.046l-.062.027.034.078.533-.233-.021-.084-.058.026c-.112.052-.225-.046-.225-.046l-.339-.307-.945-.871-.068.031.026 1.665c.003.081-.009.151-.032.189-.032.049-.118.084-.118.084l.033.074zm2.228-1.08l.956-.64-.203-.305-.069.048c.067.098.11.174-.021.262-.059.039-.28.188-.28.188l-.333-.498.285-.191c.098-.065.121-.033.19.068l.07-.046-.269-.402-.071.048c.071.102.09.135-.008.202l-.286.19v-.001l-.398-.592s.241-.162.307-.206c.099-.067.191-.054.289.092l.07-.049-.22-.331-.977.656.05.074c.112-.074.155-.12.261.039 0 0 .623.93.715 1.068.092.137-.04.214-.105.257l.047.069zm1.711-1.204l.49-.486c.101-.1.209-.223.239-.38.013-.068.009-.226-.113-.35-.136-.136-.31-.183-.58-.16-.003-.023-.013-.111-.013-.111-.029-.272-.054-.487-.057-.659-.002-.177.05-.254.07-.285l.04-.048-.054-.055-.169.166c-.091.092-.128.144-.149.214-.034.108-.022.245.013.474l.065.4-.15.148-.369-.373c-.096-.097.012-.181.096-.264l-.058-.058-.559.553.058.061c.1-.1.145-.14.227-.058 0 0 .922.932.974.985.104.106-.059.225-.059.225l.058.061zm.981-2.751l.009.135c.019.311.101.493.268.607.223.153.507.072.693-.199.155-.229.147-.337.147-.337l-.319-.218-.057.083s.099.046.134.159c.017.054.032.14-.045.254-.087.126-.215.161-.322.087-.076-.052-.116-.123-.129-.374l-.004-.08c-.021-.363-.096-.536-.282-.662-.084-.057-.257-.14-.474-.049-.113.046-.209.132-.295.257-.078.114-.163.289-.144.387l.367.252.051-.078s-.097-.09-.124-.123c-.125-.153-.057-.302-.005-.378.106-.155.266-.169.362-.103.093.064.156.152.169.38m1.527-.596l.074.036.322-.656-.075-.036c-.063.127-.09.174-.193.124 0 0-1.121-.551-1.244-.611-.122-.06-.047-.175.005-.281l-.075-.036-.346.707.075.037c.063-.127.091-.179.195-.129 0 0 1.177.579 1.243.612.134.066.019.233.019.233m-10.124 6.998c-6.796 0-12.327-5.529-12.327-12.326 0-6.8 5.531-12.332 12.327-12.332 6.8 0 12.329 5.532 12.329 12.332 0 6.797-5.529 12.326-12.329 12.326" fill="#003876"/><path d="M436.5118 53.8274c.064-.063.089-.075.135-.082.059-.009.181-.002.327.146.226.228.133.436.044.523l-.08.079-.543-.55.117-.116zM421.3151 39.5405c-.015-.015-.032-.027-.05-.039.093-.105.204-.233.204-.233l.131.114s-.119.134-.209.239c-.022-.031-.047-.057-.076-.081M429.0431 50.6105c-.73 0-1.321-.592-1.321-1.32 0-.73.591-1.32 1.321-1.32.728 0 1.32.59 1.32 1.32 0 .728-.592 1.32-1.32 1.32M429.3549 40.0138c-.051-.033-.131-.102-.131-.225 0-.103.074-.181.167-.181.095 0 .162.071.162.175 0 .113-.09.169-.198.231M429.414 40.1494c.051.022.107.073.107.172 0 .093-.062.135-.122.135-.101 0-.137-.071-.137-.132 0-.067.042-.11.152-.175" fill="#003876"/><path d="M429.4133 40.5453c.169 0 .279-.08.279-.213 0-.136-.106-.208-.167-.236.088-.049.212-.13.212-.284 0-.149-.121-.299-.355-.299-.206 0-.34.102-.34.268 0 .119.082.221.217.283-.078.044-.167.115-.167.234 0 .099.086.247.321.247m.502-.925s.004.145.004.147c.001.008.009.037.033.037.012 0 .028-.004.028-.04 0-.101.052-.152.155-.152.089 0 .194.056.194.214 0 .2-.221.273-.307.284-.038.008-.04.032-.04.045l.032.338c0 .012.006.031.04.031h.313l.082.006.015.004c.03 0 .03-.029.03-.044l-.017-.166c-.002-.017-.015-.027-.031-.027-.004 0-.03.001-.03.034 0 .024 0 .052-.091.052h-.217c-.003-.025-.012-.1-.014-.126.206-.036.42-.15.42-.368 0-.181-.136-.376-.437-.376-.047 0-.097.009-.128.024h-.002c-.031.016-.032.039-.032.066v.017zm-1.416-.107c-.204 0-.338.102-.338.268 0 .119.081.221.217.283-.078.044-.167.115-.167.234 0 .099.086.247.322.247.168 0 .28-.08.28-.213 0-.136-.111-.208-.168-.236.089-.049.211-.13.211-.284 0-.149-.121-.299-.357-.299m-.534.018l-.158.002H427.6903l-.154-.002c-.033 0-.04.015-.04.028 0 .021.013.033.028.033l.098.007c.027.005.032.013.037.051l.004.285v.37s-.001.023-.003.026c-.013 0-.073-.029-.101-.04l-.039-.018-.024-.006c-.015 0-.026.014-.026.031 0 .012.007.026.022.033.007.006.245.162.292.195l.044.019c.008 0 .031-.003.031-.042v-.02l-.007-.313v-.235l.007-.285c.001-.038.009-.046.035-.051l.08-.007c.015 0 .029-.012.029-.033 0-.013-.005-.028-.038-.028m-2.111.284c.827-.719 1.87-1.405 3.19-2.013 1.32.608 2.362 1.294 3.19 2.013l-3.19 3.198-3.19-3.198z" fill="#003876"/><path d="M428.5341 40.1494c.049.022.105.073.105.172 0 .093-.062.135-.121.135-.101 0-.136-.071-.136-.132 0-.067.039-.11.152-.175M428.4747 40.0138c-.053-.033-.132-.102-.132-.225 0-.103.073-.181.167-.181.096 0 .162.071.162.175 0 .113-.091.169-.197.231M434.0635 48.8542s.066.006.045-.053l-.08-.245s-.015-.032-.062-.032h-.927c-.048 0-.061.032-.061.032l-.078.242c-.028.065.039.056.039.056h.288c.02.044.027.091.001.137-.152.215-.476.362-.474.521.003.184.274.448.281.454.017.013.035.007.029-.009-.105-.427.6-.497.526-.78-.031-.116-.11-.234-.184-.323h.182c.08.096.208.299.163.425-.023.068-.06.105-.104.148-.092.094-.212.161-.303.237-.113.094-.178.196-.177.29.003.236.46.577.471.585.021.016.041.013.034-.007-.053-.107-.092-.243-.073-.341.032-.219.591-.507.626-.708.032-.185-.268-.515-.398-.629h.236zm-.43-1.551c-.005-.042-.041-.077-.086-.077h-.086c-.045 0-.082.035-.087.077l-.164 1.048c-.003.026.016.045.043.045h.502c.026 0 .046-.019.043-.045l-.165-1.048zm-4.59-.589c-1.426 0-2.582 1.153-2.582 2.577 0 1.423 1.156 2.578 2.582 2.578 1.427 0 2.583-1.155 2.583-2.578 0-1.424-1.156-2.577-2.583-2.577m-3.442 1.3c0-.02-.017-.037-.038-.037h-.77c-.053-.098-.156-.164-.275-.164-.119 0-.221.066-.275.164h-.77c-.021 0-.038.017-.038.037v1.312c0 .021.017.037.038.037h.128v-1.236h.769l.001-.013c.007-.075.071-.134.147-.134s.14.059.147.134l.001.013h.769v1.236h.128c.021 0 .038-.016.038-.037v-1.312zm-1.845 1.528c0 .022.017.039.037.039h.493c.084 0 .153-.069.153-.153v-1.131c0-.022-.017-.039-.038-.039h-.608c-.02 0-.037.017-.037.039v1.245zm.841-.114c0 .084.068.153.153.153h.492c.021 0 .038-.017.038-.039v-1.245c0-.022-.017-.039-.038-.039h-.607c-.021 0-.038.017-.038.039v1.131zm10.94-2.003v4.406s-3.758-.12-6.494 1.984c-2.734-2.104-6.493-1.984-6.493-1.984v-4.406s-.024-.946.14-1.98c2.056.377 4.179.576 6.353.576 2.175 0 4.298-.199 6.355-.576.163 1.034.139 1.98.139 1.98" fill="#003876"/><path d="M422.7572 45.0748c.028-.138.06-.275.096-.41.304-1.164.849-2.507 1.962-3.805l4.229 4.238 4.229-4.238c1.112 1.298 1.658 2.641 1.962 3.805.036.135.068.272.096.41-2.036.375-4.136.571-6.287.571s-4.251-.196-6.287-.571" fill="#003876"/></g></svg>
